<?xml version="1.0" encoding="UTF-8"?> <svg xmlns="http://www.w3.org/2000/svg" xmlns:xlink="http://www.w3.org/1999/xlink" height="1024" viewBox="0 0 1440 1024" width="1440"><defs><linearGradient id="a"><stop offset="0" stop-color="#c2d0e7"></stop><stop offset="1" stop-color="#aabad1"></stop></linearGradient><linearGradient id="b" x1="50%" x2="50%" xlink:href="#a" y1="0%" y2="100%"></linearGradient><linearGradient id="c"><stop offset="0" stop-color="#fff"></stop><stop offset="1" stop-color="#eaf2ff"></stop></linearGradient><linearGradient id="d" x1="101.939163%" x2="50%" xlink:href="#c" y1="-66.329271%" y2="100%"></linearGradient><linearGradient id="e" x1="50.241332%" x2="50%" xlink:href="#c" y1="-66.329271%" y2="100%"></linearGradient><linearGradient id="f" x1="151.800759%" x2="50%" xlink:href="#c" y1="45.571045%" y2="51.903629%"></linearGradient><linearGradient id="g" x1="51.767843%" x2="48.232157%" xlink:href="#a" y1="52.672925%" y2="22.292168%"></linearGradient><linearGradient id="h" x1="65.306153%" x2="50%" xlink:href="#c" y1="-66.329271%" y2="100%"></linearGradient><linearGradient id="i" x1="83.746624%" x2="50%" xlink:href="#c" y1="-66.329271%" y2="100%"></linearGradient><linearGradient id="j" x1="151.800759%" x2="50%" xlink:href="#c" y1="45.734418%" y2="51.833409%"></linearGradient><linearGradient id="k" x1="151.800759%" x2="50%" xlink:href="#c" y1="48.324859%" y2="50.72%"></linearGradient><linearGradient id="l" x1="50%" x2="50%" xlink:href="#a" y1="-1436.36499%" y2="2564.11869%"></linearGradient><linearGradient id="m"><stop offset="0" stop-color="#c0ccdd"></stop><stop offset="1" stop-color="#dbe3f0"></stop></linearGradient><linearGradient id="n" x1="0%" x2="53.354941%" xlink:href="#m" y1="46.577462%" y2="56.987168%"></linearGradient><linearGradient id="o" x1="0%" x2="53.354941%" xlink:href="#m" y1="46.67473%" y2="56.788592%"></linearGradient><linearGradient id="p" x1="54.215379%" x2="52.949171%" y1="56.42629%" y2="43.57371%"><stop offset="0" stop-color="#e0e6f0" stop-opacity="0"></stop><stop offset="1" stop-color="#bdc9dc"></stop></linearGradient><linearGradient id="q"><stop offset="0" stop-color="#f8fbff"></stop><stop offset="1" stop-color="#fff" stop-opacity="0"></stop></linearGradient><linearGradient id="r" x1="97.934963%" x2="90.789361%" xlink:href="#q" y1="2.991056%" y2="2.991056%"></linearGradient><linearGradient id="s" x1="2.093517%" x2="9.683918%" xlink:href="#q" y1="3.239191%" y2="3.239191%"></linearGradient><path id="t" d="m64 466h1311v470h-1311z"></path><linearGradient id="u"><stop offset="0" stop-color="#8ea0b8"></stop><stop offset="1" stop-color="#556682"></stop></linearGradient><linearGradient id="v" x1="49.477602%" x2="49.816952%" xlink:href="#u" y1="-315.956221%" y2="232.993039%"></linearGradient><linearGradient id="w"><stop offset="0" stop-color="#fddb4b"></stop><stop offset="1" stop-color="#fab525"></stop></linearGradient><linearGradient id="x" x1="12.21572%" x2="112.860761%" xlink:href="#w" y1="46.464701%" y2="54.496244%"></linearGradient><path id="y" d="m.689802 0h196v34h-196z"></path><linearGradient id="z"><stop offset="0" stop-color="#ffb34b"></stop><stop offset="1" stop-color="#ff7b25"></stop></linearGradient><linearGradient id="A" x1="26.395487%" x2="50%" xlink:href="#z" y1="-9.913698%" y2="100%"></linearGradient><path id="B" d="m.1356064 326.424252c3.12274436-50.563495 6.59227045-88.453646 10.4085783-113.670454-5.36609221-37.870525-1.452498-117.2707885-1.452498-134.2122825 0-16.9414939-8.21473252-26.3889857 2.7662007-42.6492138 7.3206222-10.840152 24.7450408-21.5849523 52.273256-32.23440072 22.2102277-5.77082428 41.7333546-4.71346765 58.5693816 3.17206992 25.254039 11.8283063 46.40846 39.8275992 55.640112 63.8203093s20.071804 48.8720418 22.809549 51.7940008 33.679654 19.959479 50.522477 17.10192c-11.669862 15.521876-18.994978 27.029989-18.994978 37.109324 0 10.079334-39.782669-12.709247-47.059858-17.068971-7.27719-4.359724-23.595683-21.50957-25.575678-32.168503.625979 11.22755-1.910603 49.176569-7.609745 113.847057v81.930162z"></path><linearGradient id="C" x1="40.366281%" x2="50%" xlink:href="#z" y1="-9.913698%" y2="100%"></linearGradient><linearGradient id="D" x1="0%" x2="85.577189%" xlink:href="#w" y1="50.180569%" y2="49.819431%"></linearGradient><linearGradient id="E"><stop offset="0" stop-color="#ffe0bb"></stop><stop offset="1" stop-color="#eca17d"></stop></linearGradient><linearGradient id="F" x1="87.741528%" x2="50%" xlink:href="#E" y1="24.711126%" y2="100%"></linearGradient><path id="G" d="m5.92420152 134.270861c3.1656506-15.133596-3.87023114-48.1079655-3.87023114-56.062779 0-7.9548136-14.32703598-68.26492317 32.69650662-76.8389737 47.0235425-8.57405053 58.8864435 25.5078003 58.8864435 36.0705542 0 10.562754 3.3148116 33.1238362 7.9392415 35.9461278-4.0508418 6.2181714-11.1048921 1.6283995-11.1048921 5.2187832 0 3.5903836-1.4796408 23.9383315-11.1699777 26.7447445-9.6903369 2.806414-29.0132111 2.099849-29.0132111 5.29527 0 3.195422-2.7082841 20.792073 11.8775255 23.626273-.4644278 19.569476-5.2017584 21.536348-11.8775255 21.536348-6.6757672 0-25.6121135-4.090537-44.36387958-21.536348z"></path><linearGradient id="H" x1="138.799593%" x2="50%" xlink:href="#E" y1="35.183673%" y2="79.294161%"></linearGradient><linearGradient id="I" x1="50%" x2="73.196305%" y1="0%" y2="68.175709%"><stop offset="0" stop-color="#d07171"></stop><stop offset="1" stop-color="#a33d3d"></stop></linearGradient><linearGradient id="J" x1="23.502196%" x2="50%" xlink:href="#w" y1="36.403321%" y2="63.596679%"></linearGradient><path id="K" d="m1.41307339 71.9457158c57.08327341-9.1024067 102.63873361-21.6125104 136.66637961-37.5303109 1.639668-8.5738665-6.343613-6.0898562-14.520117-7.0346315-5.451002-.6298503-14.096554-1.2308102-25.9366555-1.8028798-11.5155157-21.36479376-32.2853634-29.34534193-62.3095433-23.94164455-27.42894957 8.41157365-38.72897085 31.84806255-33.90006381 70.30946675z"></path><linearGradient id="L"><stop offset="0" stop-color="#4577b1"></stop><stop offset="1" stop-color="#7aafd9"></stop></linearGradient><linearGradient id="M" x1="58.872991%" x2="37.12488%" xlink:href="#L" y1="64.348712%" y2="-2.87826%"></linearGradient><path id="N" d="m49.475159 10.9659892c9.6290344 4.1159002 16.1434097 13.8364409 19.5431258 29.1616222 5.0995741 22.987772-2.9174657 78.7161576-53.9102118 87.4146386-5.99093639 42.211358-4.9864046 69.793472 3.0135954 82.746344-12.02274371 27.887234-18.03411558 67.297234-18.03411558 118.230001 37.82189068 29.997306 92.35775178 28.703083 163.60758318-3.882671l3.468682-197.093674c-1.33452-53.3771443-8.759477-90.0516961-22.27487-110.0236553-14.425978-12.88697082-23.188387-18.26855465-26.287227-16.14475145 12.382682 12.56650835 21.311757 33.61475885 26.787227 63.14475145-5.358761 2.7811775-29.131657 14.3671703-49.5000003 0-1.3553934-19.1058054-2.2080482-38.3079331-27.8706629-61.99999998-6.3191787.44231254-12.5002206 3.2581107-18.5431258 8.44739448z"></path><linearGradient id="O" x1="88.75224%" x2="88.75224%" y1="64.348712%" y2="0%"><stop offset="0" stop-color="#3869a2"></stop><stop offset="1" stop-color="#367eb6"></stop></linearGradient><linearGradient id="P" x1="88.75224%" x2="-6.231292%" xlink:href="#L" y1="61.974574%" y2="5.870976%"></linearGradient><linearGradient id="Q" x1="55.375278%" x2="42.200223%" xlink:href="#L" y1="64.348712%" y2="-2.87826%"></linearGradient><linearGradient id="R" x1="50%" x2="50%" y1="0%" y2="100%"><stop offset="0" stop-color="#de9664"></stop><stop offset="1" stop-color="#df792e"></stop></linearGradient><linearGradient id="S" x1="138.799593%" x2="50%" xlink:href="#E" y1="40.502299%" y2="68.778418%"></linearGradient><linearGradient id="T" x1="10.24828%" x2="50%" xlink:href="#z" y1="-.98081%" y2="92.545204%"></linearGradient><path id="U" d="m2.7718332 57.8015383c17.4104193 50.3347477 35.957759 80.1988537 46.4210123 90.0265787 6.9755022 6.551817 45.0071725 12.261943 114.0950105 17.130376-.40948-18.109249 4.770412-29.065917 15.539674-32.870004-28.456386-1.085536-84.4890858-20.710592-94.1567572-19.848013-7.4472665-18.8018331-15.3348946-41.1396077-19.9941531-54.4389377-4.6592585-13.2993299-17.6979935-57.79055102-33.905803-57.79055102-7.1609812 0-20.7367007-.90081458-27.9989835 13.61071612-3.6957776 7.3849218-3.6957776 31.9633221 0 44.1798349z"></path><linearGradient id="V" x1="23.502196%" x2="50%" xlink:href="#w" y1="30.589859%" y2="69.410141%"></linearGradient><linearGradient id="W" x1="122.793859%" x2="50%" xlink:href="#E" y1="24.711126%" y2="100%"></linearGradient><linearGradient id="X"><stop offset="0" stop-color="#786257"></stop><stop offset="1" stop-color="#43332c"></stop></linearGradient><linearGradient id="Y" x1="9.956684%" x2="50%" xlink:href="#X" y1="41.52461%" y2="52.881756%"></linearGradient><linearGradient id="Z" x1="28.974805%" x2="50%" xlink:href="#X" y1="-97.052538%" y2="100%"></linearGradient><linearGradient id="aa" x1="9.956684%" x2="50%" xlink:href="#X" y1="-39.801586%" y2="80.533844%"></linearGradient><linearGradient id="ab" x1="50%" x2="50%" y1="0%" y2="100%"><stop offset="0" stop-color="#6e513e"></stop><stop offset="1" stop-color="#8c725f"></stop></linearGradient><linearGradient id="ac" x1="29.042733%" x2="50%" xlink:href="#X" y1="-97.052538%" y2="100%"></linearGradient><linearGradient id="ad" x1="9.956684%" x2="50%" xlink:href="#X" y1="-27.757965%" y2="76.438838%"></linearGradient><linearGradient id="ae" x1="17.65108%" x2="50%" xlink:href="#z" y1="-9.913698%" y2="100%"></linearGradient><path id="af" d="m121.676765 3.96078544c-10.13349 7.08277986-24.1096329 19.98928486-24.1096329 60.58347426 0 40.5941893-1.1870422 41.8574873-6.7652509 47.6155213s-77.8428048 34.040357-90.54445742 34.040357c-1.0554589 9.596724.8602713 18.848255 10.91308682 27.895396 15.0992761.596572 68.3818776-.923361 119.8354994-27.895396 20.382646-37.186853 37.904213-134.6325106 16.029442-142.23935256-3.740398-3.11938709-15.225197-7.08277984-25.358687 0z"></path><linearGradient id="ag" x1="23.502196%" x2="87.855037%" xlink:href="#w" y1="49.048489%" y2="50%"></linearGradient><linearGradient id="ah" x1="12.175853%" x2="50%" xlink:href="#z" y1="-9.913698%" y2="100%"></linearGradient><linearGradient id="ai" x1="71.918957%" x2="45.178554%" xlink:href="#L" y1="59.014469%" y2="-24.46703%"></linearGradient><path id="aj" d="m125.567645 0 5.22793 8.88273616c-27.780443 13.18405644-46.3334797 30.60357494-55.6591097 52.25855524-13.988445 32.4824706-2.3203621 47.9999996 7.5541145 52.9999996 6.5829844 3.333334 18.0220382 2.333334 34.3171602-3-2.486835 15.268107-2.486835 31.642171 0 49.122191 3.730252 26.22003 13.787835 98.132228 13.787835 107.083853 0 5.96775-43.5985247 5.96775-130.795575 0 7.96895566-31.062398 11.9534335-52.305301 11.9534335-63.72871 0-17.135113-2.91697032-72.519424 0-99.495074 2.9169703-26.9756502 9.5573393-43.494524 17.5108584-58.3214432 7.953519-14.8269193 38.737869-43.8021078 41.6990958-43.8021078s-35.3048945 36.8242604-38.5019952 47.5866881c-3.1971006 10.7624276 11.9290351 11.8233084 21.1362874 4.5742576 9.2072523-7.2490507 22.2492305-25.1719718 37.333244-35.1807584 10.0560091-6.6725244 21.5349161-12.99925354 34.4367211-18.9801873z"></path><linearGradient id="ak" x1="144.668751%" x2="29.176005%" xlink:href="#L" y1="53.684756%" y2="19.560844%"></linearGradient><linearGradient id="al"><stop offset="0" stop-color="#90523b"></stop><stop offset="1" stop-color="#59483f"></stop></linearGradient><linearGradient id="am" x1="9.653869%" x2="50%" xlink:href="#al" y1="20.994368%" y2="100%"></linearGradient><path id="an" d="m15.989118 1.43666478c0 7.38007948-3.5820541 24.66502622-15.989118 33.78462492 1.27233402 5.8230969 7.99455898 2.3775476 7.99455898 9.430453 0 7.0529053-.34971113 20.6409588 7.99455902 25.2298052 8.3442701 4.5888464 29.6712046 2.2282353 29.6712046 7.4261654v15.1161956c0 3.4374706-30.4465332 30.9571151-16.3948329 30.9571151 14.0517002 0 32.2005329-18.725573 41.2785638-22.092452 9.0780309-3.3668789 20.7296465-11.8334712 20.7296465-21.6202477 0-9.7867764 3.8296531-46.5272284 3.8296531-54.540764 0-8.0135355-79.1142351-31.070975-79.1142351-23.69089552z"></path><linearGradient id="ao" x1="-9.686631%" x2="50%" xlink:href="#al" y1="20.994368%" y2="100%"></linearGradient><linearGradient id="ap" x1="66.411486%" x2="50%" y1="-15.445071%" y2="100%"><stop offset="0" stop-color="#323437"></stop><stop offset="1" stop-color="#171819"></stop></linearGradient><linearGradient id="aq" x1="23.502196%" x2="50%" xlink:href="#w" y1="35.214273%" y2="64.785727%"></linearGradient><path id="ar" d="m2.35786301 36.1278306c37.83265919 11.791982 80.10884849 24.215914 126.82856799 37.271796 12.131753-34.1469871 5.198376-56.9122475-20.800131-68.29578142-25.9985069-11.38353389-49.5216254-3.72483013-70.5693555 22.97611132-19.3886354 0-30.14564114 0-32.27101728 0-3.18806421 0-8.72741614 3.0525172-3.18806421 8.0478741z"></path><linearGradient id="as" x1="50%" x2="50%" y1="0%" y2="100%"><stop offset="0" stop-color="#fff9ed"></stop><stop offset="1" stop-color="#f2d59a"></stop></linearGradient><linearGradient id="at" x1="0%" x2="100%" xlink:href="#al" y1="50%" y2="68.559879%"></linearGradient><path id="au" d="m121.676765 3.96078544c-10.13349 7.08277986-24.1096329 19.98928486-24.1096329 60.58347426 0 40.5941893-1.1870422 41.8574873-6.7652509 47.6155213s-77.8428048 34.040357-90.54445742 34.040357c-1.0554589 9.596724.8602713 18.848255 10.91308682 27.895396 15.0992761.596572 68.3818776-.923361 119.8354994-27.895396 20.382646-37.186853 37.904213-134.6325106 16.029442-142.23935256-3.740398-3.11938709-15.225197-7.08277984-25.358687 0z"></path><linearGradient id="av" x1="9.956684%" x2="50%" xlink:href="#X" y1="38.94575%" y2="53.758606%"></linearGradient><linearGradient id="aw" x1="30.747903%" x2="50%" xlink:href="#X" y1="-97.052538%" y2="100%"></linearGradient><linearGradient id="ax" x1="9.956684%" x2="50%" xlink:href="#X" y1="-28.93721%" y2="76.839799%"></linearGradient><linearGradient id="ay" x1="28.490986%" x2="42.463264%" xlink:href="#u" y1="34.827076%" y2="57.587081%"></linearGradient><linearGradient id="az" x1="28.490986%" x2="42.463264%" xlink:href="#u" y1="-278.05032%" y2="214.038542%"></linearGradient><linearGradient id="aA" x1="49.287319%" x2="49.750277%" xlink:href="#u" y1="-315.956221%" y2="232.993039%"></linearGradient><linearGradient id="aB" x1="49.899095%" x2="49.964643%" xlink:href="#u" y1="-315.956221%" y2="232.993039%"></linearGradient><linearGradient id="aC" x1="28.490986%" x2="42.463264%" xlink:href="#u" y1="48.534064%" y2="50.733028%"></linearGradient><linearGradient id="aD" x1="28.490986%" x2="42.463264%" xlink:href="#u" y1="-315.956221%" y2="232.993039%"></linearGradient><linearGradient id="aE" x1="29.09107%" x2="42.673533%" xlink:href="#u" y1="-315.956221%" y2="232.993039%"></linearGradient><linearGradient id="aF" x1="49.894816%" x2="49.963144%" xlink:href="#u" y1="-315.956221%" y2="232.993039%"></linearGradient><linearGradient id="aG" x1="49.972953%" x2="49.990523%" xlink:href="#u" y1="-315.956221%" y2="232.993039%"></linearGradient><linearGradient id="aH" x1="50%" x2="50%" y1="-91.962739%" y2="207.224713%"><stop offset="0" stop-color="#f3e2ae"></stop><stop offset="1" stop-color="#e4c076"></stop></linearGradient><linearGradient id="aI" x1="50%" x2="50%" xlink:href="#c" y1="0%" y2="100%"></linearGradient><linearGradient id="aJ" x1="29.814294%" x2="42.92695%" xlink:href="#u" y1="-315.956221%" y2="232.993039%"></linearGradient><linearGradient id="aK"><stop offset="0" stop-color="#f4e7c2"></stop><stop offset="1" stop-color="#e6ca8e"></stop></linearGradient><linearGradient id="aL" x1="39.302142%" x2="50%" xlink:href="#aK" y1="45.780392%" y2="52.400959%"></linearGradient><linearGradient id="aM" x1="39.302142%" x2="50%" xlink:href="#aK" y1="45.201468%" y2="52.730367%"></linearGradient><linearGradient id="aN" x1="15.865469%" x2="102.017346%" y1="39.557807%" y2="60.203874%"><stop offset="0" stop-color="#ffc096"></stop><stop offset="1" stop-color="#ed8c44"></stop></linearGradient><path id="aO" d="m442.001099 11v68.1384278h-188.594768v83.7728572h-160.4638008v85.624668h-92.9425302v66.70985c0 6.075132 4.92486775 11 11 11h872.713142c6.075132 0 11-4.924868 11-11v-304.245803c0-6.07513225-4.924868-11-11-11h-430.712043c-6.075132 0-11 4.92486775-11 11z"></path><linearGradient id="aP" x1="28.490986%" x2="42.463264%" xlink:href="#u" y1="27.127736%" y2="61.437065%"></linearGradient><mask id="aQ" fill="#fff"><use fill="#fff" fill-rule="evenodd" xlink:href="#y"></use></mask><mask id="aR" fill="#fff"><use fill="#fff" fill-rule="evenodd" xlink:href="#B"></use></mask><mask id="aS" fill="#fff"><use fill="#fff" fill-rule="evenodd" xlink:href="#G"></use></mask><mask id="aT" fill="#fff"><use fill="#fff" fill-rule="evenodd" xlink:href="#K"></use></mask><mask id="aU" fill="#fff"><use fill="#fff" fill-rule="evenodd" xlink:href="#N"></use></mask><mask id="aV" fill="#fff"><use fill="#fff" fill-rule="evenodd" xlink:href="#U"></use></mask><mask id="aW" fill="#fff"><use fill="#fff" fill-rule="evenodd" xlink:href="#af"></use></mask><mask id="aX" fill="#fff"><use fill="#fff" fill-rule="evenodd" xlink:href="#aj"></use></mask><mask id="aY" fill="#fff"><use fill="#fff" fill-rule="evenodd" xlink:href="#an"></use></mask><mask id="aZ" fill="#fff"><use fill="#fff" fill-rule="evenodd" xlink:href="#ar"></use></mask><mask id="a0" fill="#fff"><use fill="#fff" fill-rule="evenodd" xlink:href="#au"></use></mask><mask id="a1" fill="#fff"><use fill="#fff" fill-rule="evenodd" xlink:href="#aO"></use></mask></defs><g fill="none" fill-rule="evenodd"><g opacity=".6"><g transform="translate(208 85)"><path d="m952 119h100v262h-100z" fill="url(#b)"></path><g fill="url(#d)"><path d="m967 134h30v42h-30z"></path><path d="m1007 134h30v42h-30z"></path><path d="m967 186h30v42h-30z"></path><path d="m1007 186h30v42h-30z"></path><path d="m967 238h30v42h-30z"></path><path d="m1007 238h30v42h-30z"></path><path d="m967 290h30v42h-30z"></path><path d="m1007 290h30v42h-30z"></path><path d="m967 342h30v42h-30z"></path><path d="m1007 342h30v42h-30z"></path></g><path d="m857 93c16.839386-4.4756965 31.257651-14.6830765 43.254796-30.6221399 11.997144-15.9390635 20.912212-36.7316835 26.745204-62.3778601v379h-70z" fill="url(#b)"></path><path d="m886 106h13v267h-13z" fill="url(#e)"></path><path d="m838 147 19-12v124h-19z" fill="url(#b)"></path><path d="m793 259h64v122h-64z" fill="url(#b)"></path><path d="m805 277h41v8h-41z" fill="url(#f)"></path><path d="m805 297h41v8h-41z" fill="url(#f)"></path><path d="m805 317h41v8h-41z" fill="url(#f)"></path><path d="m805 337h41v8h-41z" fill="url(#f)"></path><path d="m805 357h41v8h-41z" fill="url(#f)"></path><path d="m749 147c6.351196 7.761362 13.68453 13.548215 22 17.360558 8.31547 3.812344 15.648804 7.439284 22 10.880821v205.758621h-44z" fill="url(#g)"></path><path d="m644 106h105v275h-105z" fill="url(#b)"></path><path d="m659 129h19v49h-19z" fill="url(#h)"></path><path d="m659 195h19v33h-19z" fill="url(#i)"></path><path d="m687 195h19v33h-19z" fill="url(#i)"></path><path d="m715 195h19v33h-19z" fill="url(#i)"></path><path d="m687 129h47v9h-47z" fill="url(#j)"></path><path d="m687 149h47v9h-47z" fill="url(#j)"></path><path d="m687 169h47v9h-47z" fill="url(#j)"></path><path d="m659 242h75v9h-75z" fill="url(#k)"></path><path d="m659 262h75v9h-75z" fill="url(#k)"></path><path d="m659 282h75v9h-75z" fill="url(#k)"></path><path d="m659 302h75v9h-75z" fill="url(#k)"></path><path d="m659 322h75v9h-75z" fill="url(#k)"></path><path d="m659 342h75v9h-75z" fill="url(#k)"></path><path d="m659 362h75v9h-75z" fill="url(#k)"></path><path d="m572 167h56v214h-56z" fill="url(#b)"></path><path d="m462 122h70v184.130609l26 .121259v74.748132h-96z" fill="url(#b)"></path><path d="m529 320h19v49h-19z" fill="url(#h)"></path><path d="m499 320h19v49h-19z" fill="url(#h)"></path><path d="m469 320h19v49h-19z" fill="url(#h)"></path><path d="m476 136h41v8h-41z" fill="url(#f)"></path><path d="m476 156h41v8h-41z" fill="url(#f)"></path><path d="m476 176h41v8h-41z" fill="url(#f)"></path><path d="m476 196h41v8h-41z" fill="url(#f)"></path><path d="m476 216h41v8h-41z" fill="url(#f)"></path><path d="m493 84h8v39h-8z" fill="url(#b)"></path><g transform="translate(0 283)"><g stroke="url(#l)" stroke-linecap="square" stroke-width="6"><path d="m0 .5h116"></path><path d="m17.5.75v22.25"></path><path d="m37.5.75v22.25"></path><path d="m57.5.75v22.25"></path><path d="m77.5.75v22.25"></path><path d="m97.5.75v22.25"></path></g><path d="m0 23h116v75h-116z" fill="url(#b)"></path></g></g><g stroke="url(#l)" stroke-linecap="square" stroke-width="6" transform="translate(366 248)"><g transform="translate(234)"><path d="m.85444989.5v214"></path><path d="m20.8544499.5v214"></path><path d="m2.5 19.75h18.3544499"></path><path d="m2.5 39.75h18.3544499"></path><path d="m2.5 60.75h18.3544499"></path><path d="m2.5 80.75h18.3544499"></path><path d="m2.5 100.75h18.3544499"></path><path d="m2.5 120.75h18.3544499"></path><path d="m2.5 140.75h18.3544499"></path><path d="m2.5 160.75h18.3544499"></path><path d="m2.5 180.75h18.3544499"></path><path d="m2.5 200.75h18.3544499"></path></g><g transform="translate(156)"><path d="m.85444989.5v214"></path><path d="m20.8544499.5v214"></path><path d="m2.5 19.75h18.3544499"></path><path d="m2.5 39.75h18.3544499"></path><path d="m2.5 60.75h18.3544499"></path><path d="m2.5 80.75h18.3544499"></path><path d="m2.5 100.75h18.3544499"></path><path d="m2.5 120.75h18.3544499"></path><path d="m2.5 140.75h18.3544499"></path><path d="m2.5 160.75h18.3544499"></path><path d="m2.5 180.75h18.3544499"></path><path d="m2.5 200.75h18.3544499"></path></g><g transform="translate(78)"><path d="m.85444989.5v214"></path><path d="m20.8544499.5v214"></path><path d="m2.5 19.75h18.3544499"></path><path d="m2.5 39.75h18.3544499"></path><path d="m2.5 60.75h18.3544499"></path><path d="m2.5 80.75h18.3544499"></path><path d="m2.5 100.75h18.3544499"></path><path d="m2.5 120.75h18.3544499"></path><path d="m2.5 140.75h18.3544499"></path><path d="m2.5 160.75h18.3544499"></path><path d="m2.5 180.75h18.3544499"></path><path d="m2.5 200.75h18.3544499"></path></g><path d="m.85444989.5v214"></path><path d="m20.8544499.5v214"></path><path d="m2.5 19.75h18.3544499"></path><path d="m2.5 39.75h18.3544499"></path><path d="m2.5 60.75h18.3544499"></path><path d="m2.5 80.75h18.3544499"></path><path d="m2.5 100.75h18.3544499"></path><path d="m2.5 120.75h18.3544499"></path><path d="m2.5 140.75h18.3544499"></path><path d="m2.5 160.75h18.3544499"></path><path d="m2.5 180.75h18.3544499"></path><path d="m2.5 200.75h18.3544499"></path><path d="m22 50.5h212"></path><path d="m22 110.5h56"></path><path d="m22 170.5h56"></path><path d="m102 110.5h54"></path><path d="m102 170.5h54"></path><path d="m182 110.5h52"></path><path d="m182 170.5h52"></path></g></g><g opacity=".4" transform="translate(106 65)"><path d="m963.747061 30-182.85958 2.5023142c-9.258321.2758296-13.887481 4.0585671-13.887481 11.3482125s4.833318 10.9344681 14.499954 10.9344681h41.53747c6.460467.4747039 9.690701 3.7149315 9.690701 9.7206827s-3.230234 9.241844-9.690701 9.7082785h-26.083694c-6.09385.4664345-9.140775 3.7765222-9.140775 9.9302631 0 9.2306114 7.512994 10.0761748 9.140775 10.0761748s91.986111 3.4050887 94.111032 3.4050887c2.12492 0-3.50792-8.8581621 5.43185-8.8581621h39.352948c4.866518-.7727976 7.299777-3.1712955 7.299777-7.1954937s-2.433259-6.4768218-7.299777-7.3578708c-5.690143-.6660252-8.280189-3.1414897-7.770136-7.4263933s4.253253-6.3020772 11.229599-6.0515209h24.438038c12.035293-1.0904567 18.052939-6.4857445 18.052939-16.1858634s-6.017646-14.5501784-18.052939-14.5501784z" fill="url(#n)"></path><path d="m196.747061 178-182.8595802 2.502314c-9.25832052.27583-13.8874808 4.058567-13.8874808 11.348213 0 7.289645 4.83331791 10.934468 14.4999537 10.934468h41.5374704c6.4604674.474704 9.6907011 3.714931 9.6907011 9.720683 0 6.005751-3.2302337 9.241844-9.6907011 9.708278h-26.083694c-6.0938503.466435-9.1407755 3.776522-9.1407755 9.930263 0 9.230611 7.5129944 10.076175 9.1407755 10.076175s91.9861109 3.405089 94.1110319 3.405089c2.12492 0-3.50792-8.858162 5.43185-8.858162h39.352948c4.866518-.772798 7.299777-3.171296 7.299777-7.195494s-2.433259-6.476822-7.299777-7.357871c-5.690143-.666025-8.280189-3.14149-7.770136-7.426393.510053-4.284904 4.253253-6.302078 11.229599-6.051521h24.438038c12.035293-1.090457 18.052939-6.485745 18.052939-16.185864s-6.017646-14.550178-18.052939-14.550178z" fill="url(#n)" transform="matrix(-1 0 0 1 214.8 0)"></path><path d="m417.920991.05595733h96.347805c13.193158-.56446924 19.789738 3.14162161 19.789738 11.11827257 0 7.9766509-6.59658 11.905389-19.789738 11.7862144-7.814855-.0008053-11.722282 3.2080534-11.722282 9.626576 0 6.4185225 3.907427 9.3740099 11.722282 8.8664619h79.559473c13.447821.1782071 20.171731 4.0901605 20.171731 11.7358602 0 7.6456996-6.72391 11.4186249-20.171731 11.3187758-6.679613-.343835-10.01942 1.0459994-10.01942 4.1695032 0 3.1235039 3.339807 4.8579785 10.01942 5.203424 5.248771.3704078 7.873156 2.5513849 7.873156 6.5429313s-2.624385 6.043686-7.873156 6.1564188h-243.10595c-10.481546-1.5733736-15.722319-6.7924726-15.722319-15.6572969 0-8.8648244 5.240773-14.045729 15.722319-15.5427137h90.806679c9.135623-.9246731 13.703434-4.9547355 13.703434-12.0901871 0-7.1354517-4.567811-10.7031775-13.703434-10.7031775h-23.608007c-12.44367.3567188-18.665506-4.9759454-18.665506-15.9979924 0-11.02204705 6.221836-16.53307057 18.665506-16.53307057z" fill="url(#o)"></path></g><g opacity=".5"><use fill="url(#p)" xlink:href="#t"></use><use fill="url(#r)" xlink:href="#t"></use><use fill="url(#s)" xlink:href="#t"></use></g><g transform="translate(770 405)"><ellipse cx="104" cy="111" fill="#bdc9dc" opacity=".5" rx="104" ry="5"></ellipse><path d="m30.689802 34h12v77h-12z" fill="url(#v)"></path><path d="m149.689802 34h12v77h-12z" fill="url(#v)"></path><use fill="url(#x)" xlink:href="#y"></use><g mask="url(#aQ)" stroke="#444" stroke-linecap="square" stroke-width="7"><g transform="translate(-5)"><path d="m28.6502644 34 20.6203956-34"></path><path d="m.9604622 34 20.6203955-34"></path><path d="m54.9604622 34 20.6203955-34"></path><path d="m81.9604622 34 20.6203958-34"></path><path d="m107.960462 34 20.620396-34"></path><path d="m134.960462 34 20.620396-34"></path><path d="m159.960462 34 20.620396-34"></path><path d="m186.960462 34 20.620396-34"></path></g></g></g><g transform="translate(574.111052 311.345373)"><g transform="translate(7.121668 138.347704)"><use fill="url(#A)" xlink:href="#B"></use><path d="m151.552015 49.6095591c1.945142 8.5681006 3.35023 14.1338885 4.215264 16.6973638 8.494359 25.1725131 7.344705 37.1481571 16.528549 55.7529961 9.183843 18.60484 20.630022 23.084624 38.471451 44.870981 1.041757 1.2721.811823 2.693661-.689802 4.264684l-40.556107-17.318718c-8.741049-7.859577-13.325746-14.420783-13.754091-19.683619-.428345-5.262835-1.833433-33.457398-4.215264-84.5836879z" fill="url(#C)" mask="url(#aR)" opacity=".4"></path><g stroke="url(#D)" stroke-width="9"><path d="m147.657702 62.3069229c9.406385-2.7100278 20.680375-2.7100278 33.821969 0" mask="url(#aR)"></path><path d="m154.657702 79.3069229c9.406385-2.7100278 20.680375-2.7100278 33.821969 0" mask="url(#aR)"></path></g></g><g transform="translate(59.174582)"><g transform="translate(5.413073 11.411839)"><use fill="url(#F)" xlink:href="#G"></use><path d="m77.4576305 105.992788c-9.587286 0-38.3554753-4.084078-43.4417766-6.3876043s2.2441027 16.8306813 9.7375489 27.3306813 20.5725416 10.306923 27.6951146 10.306923 15.5963992-31.25 6.0091131-31.25z" fill="url(#H)" mask="url(#aS)" opacity=".4"></path><path d="m90.1917153 89.3853065c-2.381834 0-5.6786417-.4613441-9.8904231-1.3840325" mask="url(#aS)" stroke="#ea966f" stroke-linecap="round" stroke-width="3"></path><ellipse cx="86" cy="60" fill="#ea966f" mask="url(#aS)" rx="2" ry="4"></ellipse><path d="m77.8012922 52.8292837c3-2.2533929 8.0069925-3.9805402 10.1987078-3.9805402" mask="url(#aS)" opacity=".4" stroke="#ea966f" stroke-linecap="round" stroke-width="2"></path></g><path d="m10.4844692 118.313538 19.966432-30.9091491c-1.469369-8.7732757.6990238-14.2577556 6.5051783-16.4534398 5.8061546-2.1956842 9.4493747 2.1844037 10.9296603 13.1402637l4.8120198-1.5556098c.7627037-14.5030144 7.435997-23.4611438 20.0198801-26.8743883 18.8758245-5.1198669 10.2337679-32.1754701-16.0164853-29.95395-26.2502532 2.22152-51.28808101 18.6302019-51.28808101 38.507075 0 13.2512488 1.69046528 31.2843148 5.07139581 54.0991983z" fill="url(#I)"></path><use fill="url(#J)" xlink:href="#K"></use><g stroke="#ffad00" stroke-width="5"><path d="m-1 55.3960715c38.6334259-8.2544745 71.5076527-18.1938671 98.6226805-29.8181779" mask="url(#aT)"></path><path d="m15.4622485 8.72982998c33.3511196-8.09426563 55.8206048-.74560108 67.4084554 22.04599362" mask="url(#aT)"></path></g></g><g transform="translate(0 140.136032)"><use fill="url(#M)" xlink:href="#N"></use><path d="m100.526032 87.8608152c18.725364 2.5242655 35.179669 1.1909322 49.362916-4 2.397516 13.3851965 3.449628 36.2748778 3.156338 68.6690448-18.984936 11.649408-36.160962 12.420467-51.528078 2.313176 2.511097-15.825404 2.180705-38.152811-.991176-66.9822208z" fill="url(#O)" mask="url(#aU)"></path><path d="m74.135576 78.5185947c5.0356954 18.1081629 25.1507872 46.5767723 41.952079 55.3317483 11.200862 5.83665 28.504977 13.726067 51.912345 23.668252l-46.932212 11.888661-56.4801325-35.556913c3.0081501-48.9599409 6.1907903-67.4038569 9.5479205-55.3317483z" fill="url(#P)" mask="url(#aU)" opacity=".3"></path><path d="m81.6947573 335.600661c12.61444-30.021846 18.9216597-46.207651 18.9216597-48.557417 1.879621 7.818231 1.879621 26.014964 0 54.590199z" fill="url(#Q)" mask="url(#aU)" opacity=".5"></path></g><path d="m184.081314 343.772579 43.986609-78.419761c2.400008-4.278759 7.784672-5.847174 12.106943-3.526443l35.168991 18.883075c4.379245 2.351321 6.023201 7.807523 3.67188 12.186767-.043862.081691-.088983.162699-.135349.242996l-44.214709 76.572159c-2.363342 4.092896-7.489925 5.660502-11.73813 3.589285l-34.940891-17.035473c-4.467831-2.178296-6.323866-7.566047-4.14557-12.033879.075659-.155181.155767-.308153.240226-.458726z" fill="url(#R)"></path><path d="m191.809266 299.296549c18.103243 1.639953 31.660539 2.263281 36.218934 4.982055 4.558396 2.718774 10.18921 12.745079 10.18921 18.857434 0 6.112356 1.513466 11.430691-10.18921 15.484148-11.702675 4.053457-4.810403-7.453633-15.862361-7.453633s-30.207076 5.521232-36.896246 0 0-29.606723 16.539673-31.870004z" fill="url(#S)"></path><g transform="translate(12.981737 167.20806)"><use fill="url(#T)" xlink:href="#U"></use><g stroke="url(#V)" stroke-width="9"><path d="m-1.09278886 81.5422152c11-17.5555133 15.75861896-39.0956486 62.74788286-39.0956486" mask="url(#aV)"></path><path d="m5.90721114 98.5422152c10.99999996-17.5555133 15.75861896-39.0956486 62.74788286-39.0956486" mask="url(#aV)"></path></g></g><path d="m254.768822 296.993084c6.700983-4.768514 22.485573-.004386 24.361686-4.768514 4.018362 5.191115 11.600736 21.25078-2.55273 31.144248-14.153467 9.893467-17.965215 8.243725-23.570157 5.613072-5.604943-2.630653-3.496409-28.543733 1.761201-31.988806z" fill="url(#W)"></path><path d="m38.6990602 347.923839c7.4554553 3.06703 78.9780568 14.71499 109.3617738 5.924082-.578495 12.001695-.583678 18.430626-.015548 19.286793-36.615662 4.26458-74.1384877 1.128913-112.5684769-9.407002-2.8990474-7.906001-4.2332041-18.870902 3.2222511-15.803873z" fill="url(#Y)"></path><path d="m3.22056686 331.166553c-3.1836208 17.986082-3.98102621 32.044954-2.3922162 42.176614 1.99260379 7.637225 25.54495614 13.582434 32.81126204 6.854698 1.5332572-13.362494 4.0594475-36.65922 4.0594475-42.345266-5.3775108-4.688656-16.8703419-6.917338-34.47849334-6.686046z" fill="url(#Z)"></path><path d="m3.09819059 330.950054c0 10.964077 2.74286819 19.664087 8.22860461 26.100031 4.9002318-2.110016 7.8977919-8.023939 14.1255531-13.05311 2.0439283-1.650556 6.1261657-3.698681 12.2467119-6.144376-3.01804-3.349561-9.2953927-5.650409-18.8320578-6.902545-9.53666519-1.252135-14.79293578-1.252135-15.76881181 0z" fill="url(#aa)"></path><circle cx="11.888948" cy="354.654627" fill="url(#ab)" r="4"></circle><path d="m145.888948 345.057012c5.755237.963903 11.919781-.560015 18.493633-4.571752 6.573853-4.011738 10.075975 1.423158 10.506367 16.304687-.659886 12.722262-2.112379 19.696777-4.35748 20.923544-3.36765 1.840151-5.518978 3.30126-24.64252 2.583496-1.147417-6.926105-1.147417-18.672763 0-35.239975z" fill="url(#ac)"></path><path d="m145.388948 344.964318c6.675419 2.723333 11.103665 4.751394 13.284736 6.084184 8.61161 5.262306 11.252925 10.138529 13.645299 10.138529 2.16782 0 3.60655-6.010194 3.60655-11.891745 0-5.881552-5.980479-11.429625-8.761715-10.119826-1.279256.602455-3.331655.995562-9.447127 2.633177-1.83221.490633-5.941457 1.542527-12.327743 3.155681z" fill="url(#ad)"></path><circle cx="171.888948" cy="358.654627" fill="url(#ab)" r="3"></circle></g><g transform="translate(905.344379 220.132221)"><g transform="matrix(.98480775 .17364818 -.17364818 .98480775 87.973095 120.416041)"><use fill="url(#ae)" xlink:href="#af"></use><g stroke="url(#ag)" stroke-width="9"><path d="m97.5671321 49.0628544c11.5097979 6 41.5097979 12 61.5097979 6" mask="url(#aW)"></path><path d="m93.5671321 67.0628544c11.5097979 6 41.5097979 12 61.5097979 6" mask="url(#aW)"></path></g></g><path d="m269.850729 127.18601c17.582173 28.38564 27.344565 45.254458 29.287177 50.606454 2.913918 8.027994-18.28438 88.0025-43.5178 88.0025-25.233419 0-91.42009-19.239833-91.42009-36.234108s12.871538-58.435495 44.163003-81.776679c7.554483-8.032813 15.367916-13.894161 23.440298-17.584042z" fill="url(#ah)"></path><g transform="translate(149.112737 134.726488)"><use fill="url(#ai)" xlink:href="#aj"></use><path d="m15.0872789 171.559506c18.4556054-8.221819 76.2379396-45.375938 78.9458078-54.929372 1.8052455-6.368955 5.6418447 5.214738 11.5097973 34.75108-63.1020248 18.363582-94.7686915 27.545373-94.9999997 27.545373-.3469623 0-13.91121075.854738 4.5443946-7.367081z" fill="url(#ak)" mask="url(#aX)" opacity=".3"></path><path d="m17.0872789 74.5840334c7.0576376 6.0067627 21.2469865 9.5381836 27.5229166 8.5656769-5.0874774 11.9407629-8.6785794 47.0186117-7.8830284 57.7618637-16.3901499.610287-24.6233406-5.347723-26.4896238-8.011807-.35990993-7.59185 3.6443387-49.6660778 6.8497356-58.3157336z" fill="url(#O)" mask="url(#aX)"></path></g><g transform="translate(156.749202)"><g transform="translate(21.827827 42.320652)"><use fill="url(#am)" xlink:href="#an"></use><ellipse cx="18.5" cy="24.5" fill="#53362b" mask="url(#aY)" rx="2.5" ry="3.5"></ellipse><path d="m37.1440567 74.4703943c4.6163553-1.9232669 25.5944334-6.2486375 30.1356325-10.793222 4.541199-4.5445844-17.3875044 31.8699551-26.8111525 35.8699551-9.4236482 3.9999996-7.9408354-23.1534663-3.32448-25.0767331z" fill="url(#ao)" mask="url(#aY)" opacity=".4"></path><g stroke="#53362a"><path d="m6.04596395 51.7892157c2.03689019 0 8.60736965 1.3325103 12.81999905-2.1620245" mask="url(#aY)" stroke-linecap="round" stroke-width="2"></path><path d="m18.865963 14.5471274c2.134037 0 9.8192636 2.6763445 10.8231613 5" mask="url(#aY)" opacity=".5" stroke-width="3"></path></g></g><path d="m69.3795031 51.4681305c2.9952864 3.7326617 4.240511 13.5733701 3.7356739 29.5221252 4.3076136 3.0483002 7.598091 3.0483002 9.8714324 0 3.4100121-4.5724504 1.6934332-19.645271 15.9041752-13.61795 9.4738284 4.0182139 8.3894524 13.814473-3.2531267 29.3887771 9.0894771 6.4233322 14.9107671 13.0999872 17.4638691 20.0299632 2.669973-12.757163 6.022501-30.012032 10.057583-51.7646062-16.44936-12.3715205-29.8401938-18.5572808-40.1725006-18.5572808-15.4984602 0-18.1000358-.6000211-13.6071063 4.9989715z" fill="url(#ap)"></path><use fill="url(#aq)" xlink:href="#ar"></use><g stroke="#ffad00" stroke-width="5"><path d="m37.8169445 28.0799565c24.9312734 11.5931798 57.3177247 22.0447531 97.1593535 31.3547199" mask="url(#aZ)"></path><path d="m46.1612146 31.9150314c5.391154-9.5786509 24.6008674-30.11853175 66.9403124-25.22619058" mask="url(#aZ)"></path></g></g><path d="m0 288.086978c45.9407784-33.008678 71.1745854-55.60083 75.7014211-67.776457 32.6184329 22.457068 78.5772229 39.110691 94.5562319 39.110691-14.997394 16.081883-53.164034 50.318329-57.386948 70.262823-18.8197893 3.452163-56.4433576-10.413523-112.870705-41.597057z" fill="url(#as)"></path><path d="m145.578692 314.261131c-5.995809 0-18.833009.410255-25.449507-3.455544s-21.7977566-12.741413-24.9334094-12.741413c-3.1356527 0-4.1483037 3.46812 0 8.104767 4.1483038 4.636646 18.3096814 11.099353 18.3096814 15.041059 0 3.941705-23.3626146 2.947865-28.2769003 2.947865-4.9142856 0-17.9446085-2.947865-17.9446085-2.947865s.3994116 7.670321 9.1720101 11.743959c8.7725984 4.073637 22.901224 8.039257 29.9753617 8.039257 7.074137 0 35.748642-1.478785 45.580314-4.759021-3.406746-16.410217-.437134-21.973064-6.432942-21.973064z" fill="url(#at)"></path><g transform="translate(145.578692 166.804925)"><use fill="url(#ae)" xlink:href="#au"></use><g stroke="url(#ag)" stroke-width="9"><path d="m97.5671321 49.0628544c11.5097979 6 41.5097979 12 61.5097979 6" mask="url(#a0)"></path><path d="m93.5671321 67.0628544c11.5097979 6 41.5097979 12 61.5097979 6" mask="url(#a0)"></path></g></g><path d="m161.048304 340.993216c7.242428 1.996104 72.673776 13.823178 110.502372-4.883207 2.475443 13.988206 3.185345 20.571486 2.129706 19.749841-33.02304 15.213454-71.813615 16.398926-116.371723 3.556416-1.035272-10.22233.487991-15.619889 3.739645-18.42305z" fill="url(#av)"></path><path d="m247.655232 336.110009c0 23.087127.851527 35.685588 2.554581 37.795384 6.47003 3.793659 30.982422 2.418874 30.982422-7.802988 0-12.73018-.906632-25.606548-2.719894-38.629102z" fill="url(#aw)"></path><path d="m247.655232 336.110009c12.492287 4.152989 23.243314 9.592853 32.25308 16.319592 2.715931-7.728831 2.374282-16.015561-1.024947-24.860189-4.64854-.3288-9.618029.186052-14.908466 1.544557-5.290438 1.358504-10.730327 3.690518-16.319667 6.99604z" fill="url(#ax)"></path><circle cx="277.655621" cy="350.867779" fill="url(#ab)" r="4"></circle></g><g transform="translate(175.744373 100.5)"><path d="m5.50087643 0h311.03891157c1.949004 0 3.752455 1.03147648 4.740639 2.7113893l36.470588 62c1.540107 2.6181822.666154 5.9891417-1.952028 7.5292489-.845221.4971891-1.808.7593618-2.78861.7593618h-311.0389123c-1.9490036 0-3.7524542-1.0314765-4.7406382-2.7113893l-36.47058825-62c-1.54010716-2.61818218-.66615469-5.98914172 1.95202748-7.52924888.84522156-.49718915 1.80800042-.75936182 2.7886107-.75936182zm0 5c-.08914639 0-.17667174.02383388-.25351006.06903289-.23801656.14000974-.31746679.44646061-.17745705.68447717l36.47058828 62.00000004c.0898349.1527193.2537849.2464899.4309671.2464899h311.0389123c.089146 0 .176671-.0238339.25351-.0690329.238016-.1400097.317466-.4464606.177457-.6844772l-36.470589-61.99999996c-.089834-.15271935-.253785-.24648994-.430967-.24648994z" fill="url(#ay)"></path><g fill="url(#az)"><g transform="translate(109.255627 70.5)"><path d="m4.42416177 71.0339117 70.57849993-66.42682347-3.4268235-3.64099996-70.57849993 66.42682353z"></path><path d="m4.42416177 71.0339117 70.57849993-66.42682347-3.4268235-3.64099996-70.57849993 66.42682353z" transform="matrix(-1 0 0 1 76 0)"></path></g><g transform="translate(109.255627 140.5)"><path d="m4.42416177 71.0339117 70.57849993-66.42682347-3.4268235-3.64099996-70.57849993 66.42682353z"></path><path d="m4.42416177 71.0339117 70.57849993-66.42682347-3.4268235-3.64099996-70.57849993 66.42682353z" transform="matrix(-1 0 0 1 76 0)"></path></g><g transform="translate(109.255627 212.5)"><path d="m4.42416177 71.0339117 70.57849993-66.42682347-3.4268235-3.64099996-70.57849993 66.42682353z"></path><path d="m4.42416177 71.0339117 70.57849993-66.42682347-3.4268235-3.64099996-70.57849993 66.42682353z" transform="matrix(-1 0 0 1 76 0)"></path></g><g transform="translate(109.255627 286.5)"><path d="m4.42416177 71.0339117 70.57849993-66.42682347-3.4268235-3.64099996-70.57849993 66.42682353z"></path><path d="m4.42416177 71.0339117 70.57849993-66.42682347-3.4268235-3.64099996-70.57849993 66.42682353z" transform="matrix(-1 0 0 1 76 0)"></path></g><g transform="translate(109.255627 360.5)"><path d="m4.42416177 71.0339117 70.57849993-66.42682347-3.4268235-3.64099996-70.57849993 66.42682353z"></path><path d="m4.42416177 71.0339117 70.57849993-66.42682347-3.4268235-3.64099996-70.57849993 66.42682353z" transform="matrix(-1 0 0 1 76 0)"></path></g></g><path d="m107.755627 0h79v434h-79zm5 5v424h69v-424z" fill="url(#aA)"></path><path d="m252.255627 0v73h5v-73z" fill="url(#aB)"></path><path d="m107.755627 144.5h79v-5h-79z" fill="url(#aC)"></path><path d="m107.755627 216h79v-5h-79z" fill="url(#aC)"></path><path d="m107.755627 288h79v-5h-79z" fill="url(#aC)"></path><path d="m107.755627 362h79v-5h-79z" fill="url(#aC)"></path><path d="m43.7556265 72.5355339 66.5355335-66.5355339-3.535533-3.53553391-66.5355344 66.53553391z" fill="url(#aD)"></path><g fill="url(#az)" transform="translate(109.255627 1.5)"><path d="m4.42416177 71.0339117 70.57849993-66.42682347-3.4268235-3.64099996-70.57849993 66.42682353z"></path><path d="m4.42416177 71.0339117 70.57849993-66.42682347-3.4268235-3.64099996-70.57849993 66.42682353z" transform="matrix(-1 0 0 1 76 0)"></path></g><path d="m186.679788 72.5339117 70.5785-66.42682347-3.426823-3.64099996-70.5785 66.42682353z" fill="url(#az)"></path><path d="m255.775652 72.5354243 65.523211-66.56326229-3.563262-3.50758632-65.523211 66.56326231z" fill="url(#aE)"></path><path d="m43.7556265 72.5355339 66.5355335-66.5355339-3.535533-3.53553391-66.5355344 66.53553391z" fill="url(#aD)" transform="matrix(-1 0 0 1 150.511254 0)"></path><path d="m186.679788 72.5339117 70.5785-66.42682347-3.426823-3.64099996-70.5785 66.42682353z" fill="url(#az)" transform="matrix(-1 0 0 1 440.511254 0)"></path><path d="m255.775652 72.5354243 65.523211-66.56326229-3.563262-3.50758632-65.523211 66.56326231z" fill="url(#aE)" transform="matrix(-1 0 0 1 573.511254 0)"></path><path d="m38.7556265 0v71.5h5v-71.5z" fill="url(#aF)"></path><path d="m315.755627 3.5v141h5v-141z" fill="url(#aG)"></path><ellipse cx="148.255627" cy="508.5" fill="#bdc9dc" opacity=".5" rx="104" ry="5"></ellipse><path d="m67.2556265 428.5h159.0000005c4.418278 0 8 3.581722 8 8v73h-175.0000005v-73c0-4.418278 3.581722-8 8-8z" fill="url(#b)"></path><path d="m253.755627 194.5 64.5-52.5 61.111052 52.5" stroke="#556682" stroke-width="3"></path><rect fill="url(#aH)" height="9" rx="2" width="194" x="222.255627" y="193.5"></rect><rect fill="url(#aH)" height="9" rx="2" width="212" x="213.255627" y="202.5"></rect><path d="m254.255627 193.5v18" stroke="#556682" stroke-width="3"></path><path d="m259.255627 193.5v18" stroke="#556682" stroke-width="3"></path><path d="m378.755627 193.5v18" stroke="#556682" stroke-width="3"></path><path d="m373.755627 193.5v18" stroke="#556682" stroke-width="3"></path><g transform="translate(182.255627 68.5)"><g stroke-width="5"><path d="m2.5 2.5h57v59h-57z" fill="url(#aI)" stroke="url(#aJ)"></path><path d="m15.6772249 37 20.3227751-20.3227751" stroke="#fff" stroke-linecap="round"></path><path d="m25.6772249 44 20.3227751-20.3227751" stroke="#fff" stroke-linecap="round"></path></g><path d="m30 5v54h2v-54z" fill="url(#b)"></path></g></g><g transform="translate(159 661.769999)"><ellipse cx="201.5" cy="71.230001" fill="#d2c1a2" rx="201.5" ry="8"></ellipse><path d="m21.8537103 71.4108595c8.3644808-9.9403516 30.4135325-24.6808589 53.1462897-31.1808589s52.823882-40.2300006 87.902067-40.2300006c35.078184 0 62.876918 22.3616815 77.880092 28.3828864 15.003175 6.0212049 93.74705 43.5622943 111.301108 43.5622943-15.203378.2628173-304.178292 1.0255463-330.2295567-.5343212z" fill="url(#aL)"></path><path d="m205.573985 72.3641292c22.012613-3.7755385 38.307283-18.2878539 47.110994-23.1319629 8.803712-4.844109 25.550641-17.1841231 55.831992-17.0404308s64.685064 24.5741227 69.327724 40.1723937c-13.629142.1987388-137.461431-.0253897-172.27071 0z" fill="url(#aM)"></path></g><g transform="translate(422 613.582067)"><use fill="url(#aN)" xlink:href="#aO"></use><g stroke="#e7873c" stroke-linecap="square" stroke-width="8"><path d="m4.45851212 251.917933h886.31209988" mask="url(#a1)"></path><path d="m96.8410075 166.417933h793.9296045" mask="url(#a1)"></path><path d="m179.63758 82.4179334h711.133032" mask="url(#a1)"></path><path d="m130.295143 251.917933v69.5" mask="url(#a1)"></path><path d="m189.580858 173.667933v78.25" mask="url(#a1)"></path><path d="m318.580858 173.667933v78.25" mask="url(#a1)"></path><path d="m446.580858 173.667933v78.25" mask="url(#a1)"></path><path d="m572.580858 173.667933v78.25" mask="url(#a1)"></path><path d="m698.580858 173.667933v78.25" mask="url(#a1)"></path><path d="m824.580858 173.667933v78.25" mask="url(#a1)"></path><path d="m446.580858 3.66793341v78.24999999" mask="url(#a1)"></path><path d="m572.580858 3.66793341v78.24999999" mask="url(#a1)"></path><path d="m698.580858 3.66793341v78.24999999" mask="url(#a1)"></path><path d="m824.580858 3.66793341v78.24999999" mask="url(#a1)"></path><path d="m257.009429 251.917933v69.5" mask="url(#a1)"></path><path d="m383.723715 251.917933v69.5" mask="url(#a1)"></path><path d="m510.438001 251.917933v69.5" mask="url(#a1)"></path><path d="m637.152286 251.917933v69.5" mask="url(#a1)"></path><path d="m763.866572 251.917933v69.5" mask="url(#a1)"></path><path d="m383.723715 88.9179334v69.4999996" mask="url(#a1)"></path><path d="m510.438001 88.9179334v69.4999996" mask="url(#a1)"></path><path d="m637.152286 88.9179334v69.4999996" mask="url(#a1)"></path><path d="m763.866572 88.9179334v69.4999996" mask="url(#a1)"></path></g><path d="m319.27487 84.3699974c-7.823489 8.7303217-5.155165 22.9263686 0 22.9263686s8.267255-11.4631843 19.286621-11.4631843 10.049236 4.6735363 20.398971 4.6735363c10.349736 0 11.43526-11.5887846 24.763253-11.5887846s25.236747 4.547936 35.546945 0c6.873465-3.0319573 13.74693-6.4171335 20.620395-10.1555286-8.170079-4.0141366-15.043544-6.021205-20.620395-6.021205-8.365276 0-88.991448 0-94.840625 0s2.668324 2.898476-5.155165 11.6287976z" fill="#e7873c" mask="url(#a1)"></path></g><g transform="translate(858 575)"><path d="m35.5808577 3.4930031c12.7635211 0 7.27066 25.0769397 16.6898023 25.0769397 6.2794281 0 34.3828274 3.2077114 84.310198 9.6231343h-86.5663091c-5.9754329-2.0457898-9.3459017-5.2535012-10.1114063-9.6231343-1.1482568-6.5544496.3596412-21.61840328-4.3222849-21.61840328-4.681926 0-12.7635211-3.45853642 0-3.45853642z" fill="url(#b)"></path><rect fill="url(#aP)" height="9" rx="4.5" width="36"></rect></g></g></svg> 